# Blender v2.79 (sub 0) OBJ File: ''
# www.blender.org
mtllib vehicle.mtl
o Vehicle_Cylinder.001
v 1.347695 -0.603853 -2.671500
v 1.504284 -0.603853 -2.671500
v 1.347695 -0.722830 -2.659782
v 1.504284 -0.722830 -2.659782
v 1.347695 -0.837234 -2.625078
v 1.504284 -0.837234 -2.625078
v 1.347695 -0.942669 -2.568722
v 1.504284 -0.942669 -2.568722
v 1.347695 -1.035084 -2.492879
v 1.504284 -1.035084 -2.492879
v 1.347695 -1.110927 -2.400464
v 1.504284 -1.110927 -2.400464
v 1.347695 -1.167284 -2.295028
v 1.504284 -1.167284 -2.295028
v 1.347695 -1.201988 -2.180624
v 1.504284 -1.201988 -2.180624
v 1.347695 -1.213706 -2.061648
v 1.504284 -1.213706 -2.061648
v 1.347695 -1.201988 -1.942672
v 1.504284 -1.201988 -1.942672
v 1.347695 -1.167284 -1.828268
v 1.504284 -1.167284 -1.828268
v 1.347695 -1.110927 -1.722832
v 1.504284 -1.110927 -1.722832
v 1.347695 -1.035084 -1.630417
v 1.504284 -1.035084 -1.630417
v 1.347695 -0.942669 -1.554574
v 1.504284 -0.942669 -1.554574
v 1.347695 -0.837234 -1.498218
v 1.504284 -0.837234 -1.498218
v 1.347695 -0.722830 -1.463514
v 1.504284 -0.722830 -1.463514
v 1.347695 -0.603853 -1.451796
v 1.504284 -0.603853 -1.451796
v 1.347695 -0.484877 -1.463514
v 1.504284 -0.484877 -1.463514
v 1.347695 -0.370473 -1.498218
v 1.504284 -0.370473 -1.498218
v 1.347695 -0.265037 -1.554575
v 1.504284 -0.265037 -1.554575
v 1.347695 -0.172622 -1.630418
v 1.504284 -0.172622 -1.630418
v 1.347695 -0.096780 -1.722833
v 1.504284 -0.096780 -1.722833
v 1.347695 -0.040423 -1.828268
v 1.504284 -0.040423 -1.828268
v 1.347695 -0.005719 -1.942672
v 1.504284 -0.005719 -1.942672
v 1.347695 0.005999 -2.061649
v 1.504284 0.005999 -2.061649
v 1.347695 -0.005719 -2.180625
v 1.504284 -0.005719 -2.180625
v 1.347695 -0.040424 -2.295029
v 1.504284 -0.040424 -2.295029
v 1.347695 -0.096780 -2.400465
v 1.504284 -0.096780 -2.400465
v 1.347695 -0.172623 -2.492879
v 1.504284 -0.172623 -2.492879
v 1.347695 -0.265038 -2.568722
v 1.504284 -0.265038 -2.568722
v 1.347695 -0.370474 -2.625079
v 1.504284 -0.370474 -2.625079
v 1.347695 -0.484878 -2.659782
v 1.504284 -0.484878 -2.659782
v 1.347695 -0.603854 1.314974
v 1.504284 -0.603854 1.314974
v 1.347695 -0.722830 1.326692
v 1.504284 -0.722830 1.326692
v 1.347695 -0.837234 1.361396
v 1.504284 -0.837234 1.361396
v 1.347695 -0.942669 1.417753
v 1.504284 -0.942669 1.417753
v 1.347695 -1.035084 1.493595
v 1.504284 -1.035084 1.493595
v 1.347695 -1.110927 1.586010
v 1.504284 -1.110927 1.586010
v 1.347695 -1.167284 1.691446
v 1.504284 -1.167284 1.691446
v 1.347695 -1.201988 1.805850
v 1.504284 -1.201988 1.805850
v 1.347695 -1.213706 1.924826
v 1.504284 -1.213706 1.924826
v 1.347695 -1.201988 2.043802
v 1.504284 -1.201988 2.043802
v 1.347695 -1.167284 2.158206
v 1.504284 -1.167284 2.158206
v 1.347695 -1.110927 2.263642
v 1.504284 -1.110927 2.263642
v 1.347695 -1.035084 2.356057
v 1.504284 -1.035084 2.356057
v 1.347695 -0.942669 2.431900
v 1.504284 -0.942669 2.431900
v 1.347695 -0.837234 2.488256
v 1.504284 -0.837234 2.488256
v 1.347695 -0.722830 2.522960
v 1.504284 -0.722830 2.522960
v 1.347695 -0.603853 2.534678
v 1.504284 -0.603853 2.534678
v 1.347695 -0.484877 2.522960
v 1.504284 -0.484877 2.522960
v 1.347695 -0.370473 2.488256
v 1.504284 -0.370473 2.488256
v 1.347695 -0.265037 2.431899
v 1.504284 -0.265037 2.431899
v 1.347695 -0.172622 2.356056
v 1.504284 -0.172622 2.356056
v 1.347695 -0.096780 2.263642
v 1.504284 -0.096780 2.263642
v 1.347695 -0.040423 2.158206
v 1.504284 -0.040423 2.158206
v 1.347695 -0.005719 2.043802
v 1.504284 -0.005719 2.043802
v 1.347695 0.005999 1.924825
v 1.504284 0.005999 1.924825
v 1.347695 -0.005719 1.805849
v 1.504284 -0.005719 1.805849
v 1.347695 -0.040424 1.691445
v 1.504284 -0.040424 1.691445
v 1.347695 -0.096780 1.586010
v 1.504284 -0.096780 1.586010
v 1.347695 -0.172623 1.493595
v 1.504284 -0.172623 1.493595
v 1.347695 -0.265038 1.417752
v 1.504284 -0.265038 1.417752
v 1.347695 -0.370474 1.361396
v 1.504284 -0.370474 1.361396
v 1.347695 -0.484878 1.326692
v 1.504284 -0.484878 1.326692
v -1.633173 -0.603853 1.314973
v -1.476584 -0.603853 1.314973
v -1.633173 -0.722830 1.326692
v -1.476584 -0.722830 1.326692
v -1.633173 -0.837234 1.361396
v -1.476584 -0.837234 1.361396
v -1.633173 -0.942669 1.417752
v -1.476584 -0.942669 1.417752
v -1.633173 -1.035084 1.493595
v -1.476584 -1.035084 1.493595
v -1.633173 -1.110927 1.586010
v -1.476584 -1.110927 1.586010
v -1.633173 -1.167283 1.691446
v -1.476584 -1.167283 1.691446
v -1.633173 -1.201988 1.805850
v -1.476584 -1.201988 1.805850
v -1.633173 -1.213706 1.924826
v -1.476584 -1.213706 1.924826
v -1.633173 -1.201988 2.043802
v -1.476584 -1.201988 2.043802
v -1.633173 -1.167284 2.158206
v -1.476584 -1.167284 2.158206
v -1.633173 -1.110927 2.263642
v -1.476584 -1.110927 2.263642
v -1.633173 -1.035084 2.356056
v -1.476584 -1.035084 2.356056
v -1.633173 -0.942669 2.431899
v -1.476584 -0.942669 2.431899
v -1.633173 -0.837234 2.488256
v -1.476584 -0.837234 2.488256
v -1.633173 -0.722829 2.522960
v -1.476584 -0.722829 2.522960
v -1.633173 -0.603853 2.534678
v -1.476584 -0.603853 2.534678
v -1.633173 -0.484877 2.522960
v -1.476584 -0.484877 2.522960
v -1.633173 -0.370473 2.488256
v -1.476584 -0.370473 2.488256
v -1.633173 -0.265037 2.431899
v -1.476584 -0.265037 2.431899
v -1.633173 -0.172622 2.356056
v -1.476584 -0.172622 2.356056
v -1.633173 -0.096779 2.263641
v -1.476584 -0.096779 2.263641
v -1.633173 -0.040423 2.158206
v -1.476584 -0.040423 2.158206
v -1.633173 -0.005719 2.043802
v -1.476584 -0.005719 2.043802
v -1.633173 0.005999 1.924825
v -1.476584 0.005999 1.924825
v -1.633173 -0.005719 1.805849
v -1.476584 -0.005719 1.805849
v -1.633173 -0.040423 1.691445
v -1.476584 -0.040423 1.691445
v -1.633173 -0.096780 1.586010
v -1.476584 -0.096780 1.586010
v -1.633173 -0.172623 1.493595
v -1.476584 -0.172623 1.493595
v -1.633173 -0.265038 1.417752
v -1.476584 -0.265038 1.417752
v -1.633173 -0.370474 1.361395
v -1.476584 -0.370474 1.361395
v -1.633173 -0.484878 1.326692
v -1.476584 -0.484878 1.326692
v -1.485330 1.201187 -2.737192
v -1.485330 1.201187 2.383113
v 1.349776 1.201187 2.383113
v 1.349775 1.201187 -2.737193
v -1.485331 1.478810 -2.737191
v -1.485330 1.478810 2.383114
v 1.349776 1.478810 2.383112
v 1.349775 1.478810 -2.737192
v -1.485330 0.295899 3.901129
v 1.349776 0.295899 3.901129
v -1.485329 0.278901 4.240385
v 1.349777 0.278900 4.240383
v -1.485330 -0.526765 2.527853
v 1.349776 -0.526765 2.527853
v -1.485329 -0.708615 2.513644
v 1.349777 -0.708615 2.513643
v -1.485333 -0.378261 -2.737347
v 1.349773 -0.378261 -2.737346
v -1.485331 -0.560112 -2.751555
v 1.349774 -0.560112 -2.751557
v -1.485333 0.188495 -2.898682
v 1.349773 0.188495 -2.898682
v -1.485332 0.201526 -2.971908
v 1.349774 0.201526 -2.971910
v -1.485333 0.188495 -2.897455
v 1.349773 0.188495 -2.897455
v -1.485333 1.238986 -2.727210
v 1.349773 1.238986 -2.727209
v -1.485332 1.252017 -2.800436
v 1.349774 1.252017 -2.800437
v -1.485333 1.465539 -2.726995
v 1.349773 1.465539 -2.726994
v -1.485332 1.478570 -2.800220
v 1.349774 1.478570 -2.800222
v -0.067777 1.478810 2.383113
v -0.067776 0.278900 4.240383
v 1.349776 0.878855 3.311748
v -1.485329 0.878855 3.311749
v -0.067776 0.878855 3.311748
v 0.641000 1.478810 2.383113
v 1.349776 1.178832 2.847429
v -0.067777 1.178833 2.847430
v 0.641000 0.878855 3.311748
v 0.641000 1.178833 2.847430
v -1.485329 1.178833 2.847431
v -0.776553 1.478810 2.383114
v -0.067777 1.028844 3.079590
v -0.776553 0.878855 3.311749
v -0.067777 1.328821 2.615272
v -1.485329 1.328821 2.615273
v -0.422165 1.478810 2.383113
v -0.067776 0.953849 3.195669
v -1.130941 0.878855 3.311749
v -0.067777 1.253827 2.731351
v -1.485329 1.028844 3.079590
v -1.130941 1.478810 2.383114
v -0.067777 1.103838 2.963510
v -0.422165 0.878855 3.311749
v -0.067777 1.403816 2.499192
v -1.633173 -0.603853 -2.671501
v -1.476584 -0.603853 -2.671501
v -1.633173 -0.722830 -2.659783
v -1.476584 -0.722830 -2.659783
v -1.633173 -0.837234 -2.625079
v -1.476584 -0.837234 -2.625079
v -1.633173 -0.942669 -2.568722
v -1.476584 -0.942669 -2.568722
v -1.633173 -1.035084 -2.492879
v -1.476584 -1.035084 -2.492879
v -1.633173 -1.110927 -2.400464
v -1.476584 -1.110927 -2.400464
v -1.633173 -1.167283 -2.295029
v -1.476584 -1.167283 -2.295029
v -1.633173 -1.201988 -2.180625
v -1.476584 -1.201988 -2.180625
v -1.633173 -1.213706 -2.061648
v -1.476584 -1.213706 -2.061648
v -1.633173 -1.201988 -1.942672
v -1.476584 -1.201988 -1.942672
v -1.633173 -1.167284 -1.828268
v -1.476584 -1.167284 -1.828268
v -1.633173 -1.110927 -1.722833
v -1.476584 -1.110927 -1.722833
v -1.633173 -1.035084 -1.630418
v -1.476584 -1.035084 -1.630418
v -1.633173 -0.942669 -1.554575
v -1.476584 -0.942669 -1.554575
v -1.633173 -0.837234 -1.498218
v -1.476584 -0.837234 -1.498218
v -1.633173 -0.722829 -1.463514
v -1.476584 -0.722829 -1.463514
v -1.633173 -0.603853 -1.451796
v -1.476584 -0.603853 -1.451796
v -1.633173 -0.484877 -1.463514
v -1.476584 -0.484877 -1.463514
v -1.633173 -0.370473 -1.498218
v -1.476584 -0.370473 -1.498218
v -1.633173 -0.265037 -1.554575
v -1.476584 -0.265037 -1.554575
v -1.633173 -0.172622 -1.630418
v -1.476584 -0.172622 -1.630418
v -1.633173 -0.096779 -1.722833
v -1.476584 -0.096779 -1.722833
v -1.633173 -0.040423 -1.828269
v -1.476584 -0.040423 -1.828269
v -1.633173 -0.005719 -1.942673
v -1.476584 -0.005719 -1.942673
v -1.633173 0.005999 -2.061649
v -1.476584 0.005999 -2.061649
v -1.633173 -0.005719 -2.180625
v -1.476584 -0.005719 -2.180625
v -1.633173 -0.040423 -2.295029
v -1.476584 -0.040423 -2.295029
v -1.633173 -0.096780 -2.400465
v -1.476584 -0.096780 -2.400465
v -1.633173 -0.172623 -2.492880
v -1.476584 -0.172623 -2.492880
v -1.633173 -0.265038 -2.568723
v -1.476584 -0.265038 -2.568723
v -1.633173 -0.370474 -2.625079
v -1.476584 -0.370474 -2.625079
v -1.633173 -0.484878 -2.659783
v -1.476584 -0.484878 -2.659783
vn 0.0000 -0.0980 -0.9952
vn 0.0000 -0.2903 -0.9569
vn 0.0000 -0.4714 -0.8819
vn 0.0000 -0.6344 -0.7730
vn 0.0000 -0.7730 -0.6344
vn 0.0000 -0.8819 -0.4714
vn 0.0000 -0.9569 -0.2903
vn 0.0000 -0.9952 -0.0980
vn 0.0000 -0.9952 0.0980
vn 0.0000 -0.9569 0.2903
vn 0.0000 -0.8819 0.4714
vn 0.0000 -0.7730 0.6344
vn 0.0000 -0.6344 0.7730
vn 0.0000 -0.4714 0.8819
vn 0.0000 -0.2903 0.9569
vn 0.0000 -0.0980 0.9952
vn 0.0000 0.0980 0.9952
vn 0.0000 0.2903 0.9569
vn 0.0000 0.4714 0.8819
vn 0.0000 0.6344 0.7730
vn 0.0000 0.7730 0.6344
vn 0.0000 0.8819 0.4714
vn 0.0000 0.9569 0.2903
vn 0.0000 0.9952 0.0980
vn 0.0000 0.9952 -0.0980
vn 0.0000 0.9569 -0.2903
vn 0.0000 0.8819 -0.4714
vn 0.0000 0.7730 -0.6344
vn 0.0000 0.6344 -0.7730
vn 0.0000 0.4714 -0.8819
vn 1.0000 0.0000 -0.0000
vn 0.0000 0.2903 -0.9569
vn 0.0000 0.0980 -0.9952
vn -1.0000 -0.0000 0.0000
vn 0.0000 1.0000 0.0000
vn -0.0000 -1.0000 -0.0000
vn 0.0000 0.8589 0.5122
vn 0.0000 -0.0000 1.0000
vn -0.0000 -0.8400 -0.5427
vn -0.0000 -0.8579 0.5139
vn -0.0000 0.8681 -0.4964
vn 0.0000 0.2779 0.9606
vn -0.0000 -0.9996 -0.0282
vn 0.0000 0.9996 0.0282
vn 0.0000 -0.2738 -0.9618
vn 0.0000 0.1611 -0.9869
vn 0.0000 -0.1611 0.9869
vn -0.0000 -0.9845 -0.1752
vn 0.0000 0.0009 -1.0000
vn 0.0000 -0.0010 1.0000
usemtl Material
s off
f 1//1 2//1 4//1 3//1
f 3//2 4//2 6//2 5//2
f 5//3 6//3 8//3 7//3
f 7//4 8//4 10//4 9//4
f 9//5 10//5 12//5 11//5
f 11//6 12//6 14//6 13//6
f 13//7 14//7 16//7 15//7
f 15//8 16//8 18//8 17//8
f 17//9 18//9 20//9 19//9
f 19//10 20//10 22//10 21//10
f 21//11 22//11 24//11 23//11
f 23//12 24//12 26//12 25//12
f 25//13 26//13 28//13 27//13
f 27//14 28//14 30//14 29//14
f 29//15 30//15 32//15 31//15
f 31//16 32//16 34//16 33//16
f 33//17 34//17 36//17 35//17
f 35//18 36//18 38//18 37//18
f 37//19 38//19 40//19 39//19
f 39//20 40//20 42//20 41//20
f 41//21 42//21 44//21 43//21
f 43//22 44//22 46//22 45//22
f 45//23 46//23 48//23 47//23
f 47//24 48//24 50//24 49//24
f 49//25 50//25 52//25 51//25
f 51//26 52//26 54//26 53//26
f 53//27 54//27 56//27 55//27
f 55//28 56//28 58//28 57//28
f 57//29 58//29 60//29 59//29
f 59//30 60//30 62//30 61//30
f 4//31 2//31 64//31 62//31 60//31 58//31 56//31 54//31 52//31 50//31 48//31 46//31 44//31 42//31 40//31 38//31 36//31 34//31 32//31 30//31 28//31 26//31 24//31 22//31 20//31 18//31 16//31 14//31 12//31 10//31 8//31 6//31
f 61//32 62//32 64//32 63//32
f 63//33 64//33 2//33 1//33
f 1//34 3//34 5//34 7//34 9//34 11//34 13//34 15//34 17//34 19//34 21//34 23//34 25//34 27//34 29//34 31//34 33//34 35//34 37//34 39//34 41//34 43//34 45//34 47//34 49//34 51//34 53//34 55//34 57//34 59//34 61//34 63//34
f 65//1 66//1 68//1 67//1
f 67//2 68//2 70//2 69//2
f 69//3 70//3 72//3 71//3
f 71//4 72//4 74//4 73//4
f 73//5 74//5 76//5 75//5
f 75//6 76//6 78//6 77//6
f 77//7 78//7 80//7 79//7
f 79//8 80//8 82//8 81//8
f 81//9 82//9 84//9 83//9
f 83//10 84//10 86//10 85//10
f 85//11 86//11 88//11 87//11
f 87//12 88//12 90//12 89//12
f 89//13 90//13 92//13 91//13
f 91//14 92//14 94//14 93//14
f 93//15 94//15 96//15 95//15
f 95//16 96//16 98//16 97//16
f 97//17 98//17 100//17 99//17
f 99//18 100//18 102//18 101//18
f 101//19 102//19 104//19 103//19
f 103//20 104//20 106//20 105//20
f 105//21 106//21 108//21 107//21
f 107//22 108//22 110//22 109//22
f 109//23 110//23 112//23 111//23
f 111//24 112//24 114//24 113//24
f 113//25 114//25 116//25 115//25
f 115//26 116//26 118//26 117//26
f 117//27 118//27 120//27 119//27
f 119//28 120//28 122//28 121//28
f 121//29 122//29 124//29 123//29
f 123//30 124//30 126//30 125//30
f 68//31 66//31 128//31 126//31 124//31 122//31 120//31 118//31 116//31 114//31 112//31 110//31 108//31 106//31 104//31 102//31 100//31 98//31 96//31 94//31 92//31 90//31 88//31 86//31 84//31 82//31 80//31 78//31 76//31 74//31 72//31 70//31
f 125//32 126//32 128//32 127//32
f 127//33 128//33 66//33 65//33
f 65//34 67//34 69//34 71//34 73//34 75//34 77//34 79//34 81//34 83//34 85//34 87//34 89//34 91//34 93//34 95//34 97//34 99//34 101//34 103//34 105//34 107//34 109//34 111//34 113//34 115//34 117//34 119//34 121//34 123//34 125//34 127//34
f 129//1 130//1 132//1 131//1
f 131//2 132//2 134//2 133//2
f 133//3 134//3 136//3 135//3
f 135//4 136//4 138//4 137//4
f 137//5 138//5 140//5 139//5
f 139//6 140//6 142//6 141//6
f 141//7 142//7 144//7 143//7
f 143//8 144//8 146//8 145//8
f 145//9 146//9 148//9 147//9
f 147//10 148//10 150//10 149//10
f 149//11 150//11 152//11 151//11
f 151//12 152//12 154//12 153//12
f 153//13 154//13 156//13 155//13
f 155//14 156//14 158//14 157//14
f 157//15 158//15 160//15 159//15
f 159//16 160//16 162//16 161//16
f 161//17 162//17 164//17 163//17
f 163//18 164//18 166//18 165//18
f 165//19 166//19 168//19 167//19
f 167//20 168//20 170//20 169//20
f 169//21 170//21 172//21 171//21
f 171//22 172//22 174//22 173//22
f 173//23 174//23 176//23 175//23
f 175//24 176//24 178//24 177//24
f 177//25 178//25 180//25 179//25
f 179//26 180//26 182//26 181//26
f 181//27 182//27 184//27 183//27
f 183//28 184//28 186//28 185//28
f 185//29 186//29 188//29 187//29
f 187//30 188//30 190//30 189//30
f 132//31 130//31 192//31 190//31 188//31 186//31 184//31 182//31 180//31 178//31 176//31 174//31 172//31 170//31 168//31 166//31 164//31 162//31 160//31 158//31 156//31 154//31 152//31 150//31 148//31 146//31 144//31 142//31 140//31 138//31 136//31 134//31
f 189//32 190//32 192//32 191//32
f 191//33 192//33 130//33 129//33
f 129//34 131//34 133//34 135//34 137//34 139//34 141//34 143//34 145//34 147//34 149//34 151//34 153//34 155//34 157//34 159//34 161//34 163//34 165//34 167//34 169//34 171//34 173//34 175//34 177//34 179//34 181//34 183//34 185//34 187//34 189//34 191//34
f 193//35 194//35 195//35 196//35
f 197//36 200//36 199//36 232//36 227//36 243//36 238//36 248//36 198//36
f 193//31 197//31 198//31 194//31
f 195//37 194//37 201//37 202//37
f 195//34 199//34 200//34 196//34
f 197//38 193//38 196//38 200//38
f 204//34 202//34 206//34 208//34
f 231//39 235//39 229//39 204//39 228//39
f 199//34 195//34 202//34 204//34 229//34 233//34
f 194//31 198//31 242//31 237//31 247//31 230//31 203//31 201//31
f 208//34 206//34 210//34 212//34
f 202//40 201//40 205//40 206//40
f 203//41 228//41 204//41 208//41 207//41
f 201//31 203//31 207//31 205//31
f 211//42 212//42 216//42 215//42
f 206//43 205//43 209//43 210//43
f 207//44 208//44 212//44 211//44
f 205//31 207//31 211//31 209//31
f 216//34 214//34 220//34 222//34
f 209//31 211//31 215//31 213//31
f 212//34 210//34 214//34 216//34
f 210//45 209//45 213//45 214//45
f 222//34 220//34 224//34 226//34
f 214//46 213//46 219//46 220//46
f 215//47 216//47 222//47 221//47
f 213//31 215//31 221//31 219//31
f 223//48 225//48 226//48 224//48
f 220//49 219//49 223//49 224//49
f 221//50 222//50 226//50 225//50
f 219//31 221//31 225//31 223//31
f 230//39 245//39 240//39 250//39 231//39 228//39 203//39
f 198//39 248//39 238//39 243//39 227//39 251//39 241//39 246//39 234//39 249//39 239//39 244//39 231//39 250//39 240//39 245//39 230//39 247//39 237//39 242//39
f 236//39 233//39 229//39 235//39
f 234//39 236//39 235//39 231//39 244//39 239//39 249//39
f 227//39 232//39 236//39 234//39 246//39 241//39 251//39
f 232//39 199//39 233//39 236//39
f 252//1 253//1 255//1 254//1
f 254//2 255//2 257//2 256//2
f 256//3 257//3 259//3 258//3
f 258//4 259//4 261//4 260//4
f 260//5 261//5 263//5 262//5
f 262//6 263//6 265//6 264//6
f 264//7 265//7 267//7 266//7
f 266//8 267//8 269//8 268//8
f 268//9 269//9 271//9 270//9
f 270//10 271//10 273//10 272//10
f 272//11 273//11 275//11 274//11
f 274//12 275//12 277//12 276//12
f 276//13 277//13 279//13 278//13
f 278//14 279//14 281//14 280//14
f 280//15 281//15 283//15 282//15
f 282//16 283//16 285//16 284//16
f 284//17 285//17 287//17 286//17
f 286//18 287//18 289//18 288//18
f 288//19 289//19 291//19 290//19
f 290//20 291//20 293//20 292//20
f 292//21 293//21 295//21 294//21
f 294//22 295//22 297//22 296//22
f 296//23 297//23 299//23 298//23
f 298//24 299//24 301//24 300//24
f 300//25 301//25 303//25 302//25
f 302//26 303//26 305//26 304//26
f 304//27 305//27 307//27 306//27
f 306//28 307//28 309//28 308//28
f 308//29 309//29 311//29 310//29
f 310//30 311//30 313//30 312//30
f 255//31 253//31 315//31 313//31 311//31 309//31 307//31 305//31 303//31 301//31 299//31 297//31 295//31 293//31 291//31 289//31 287//31 285//31 283//31 281//31 279//31 277//31 275//31 273//31 271//31 269//31 267//31 265//31 263//31 261//31 259//31 257//31
f 312//32 313//32 315//32 314//32
f 314//33 315//33 253//33 252//33
f 252//34 254//34 256//34 258//34 260//34 262//34 264//34 266//34 268//34 270//34 272//34 274//34 276//34 278//34 280//34 282//34 284//34 286//34 288//34 290//34 292//34 294//34 296//34 298//34 300//34 302//34 304//34 306//34 308//34 310//34 312//34 314//34
l 217 218
